<svg xmlns="http://www.w3.org/2000/svg" xmlns:xlink="http://www.w3.org/1999/xlink" viewBox="0 0 549.31 86.94"><defs><style>.cls-1{fill:#f7f7f7;}.cls-2{fill:#008c39;}.cls-3{fill:#e5b641;}.cls-4{fill:#f2e5c0;}.cls-5{fill:#ff6969;}.cls-6{fill:#ff0d0d;}.cls-7{fill:#e8c621;}.cls-8{fill:url(#Sfumatura_senza_nome_267);}</style><linearGradient id="Sfumatura_senza_nome_267" x1="259.4" y1="78.93" x2="307.91" y2="30.42" gradientUnits="userSpaceOnUse"><stop offset="0" stop-color="#6f6f6e"/><stop offset="1" stop-color="#b1b1b1"/></linearGradient></defs><g id="Livello_2" data-name="Livello 2"><g id="Livello_1-2" data-name="Livello 1"><path class="cls-1" d="M80.35,19.64V83.29a3.64,3.64,0,0,1-3.65,3.65h-10a3.64,3.64,0,0,1-3.65-3.65V44.39l-15,40.18a3.67,3.67,0,0,1-3.42,2.37H35.78a3.65,3.65,0,0,1-3.42-2.37L17.28,44.28v39a3.64,3.64,0,0,1-3.65,3.65h-10A3.64,3.64,0,0,1,0,83.29V19.64A3.64,3.64,0,0,1,3.65,16H18a3.65,3.65,0,0,1,3.38,2.28L36.93,56.73a3.65,3.65,0,0,0,6.77,0L59.12,18.28A3.64,3.64,0,0,1,62.5,16H76.7A3.64,3.64,0,0,1,80.35,19.64Z"/><path class="cls-1" d="M110.07,33.48v7.06a3.64,3.64,0,0,0,3.65,3.64h15.84a3.65,3.65,0,0,1,3.65,3.65v6.05a3.65,3.65,0,0,1-3.65,3.65H113.72a3.64,3.64,0,0,0-3.65,3.64v8.28a3.65,3.65,0,0,0,3.65,3.65H132.6a3.64,3.64,0,0,1,3.64,3.65v6.54a3.64,3.64,0,0,1-3.64,3.65H96.43a3.64,3.64,0,0,1-3.64-3.65V19.64A3.64,3.64,0,0,1,96.43,16H132.6a3.64,3.64,0,0,1,3.64,3.65v6.54a3.64,3.64,0,0,1-3.64,3.65H113.72A3.65,3.65,0,0,0,110.07,33.48Z"/><path class="cls-1" d="M189,74.4H167.77a3.65,3.65,0,0,0-3.46,2.48l-2.57,7.58a3.65,3.65,0,0,1-3.45,2.48H148a3.65,3.65,0,0,1-3.43-4.89l23-63.65A3.64,3.64,0,0,1,171.05,16h14.89a3.64,3.64,0,0,1,3.43,2.41l23,63.65A3.65,3.65,0,0,1,209,86.94H198.49A3.65,3.65,0,0,1,195,84.46l-2.57-7.58A3.65,3.65,0,0,0,189,74.4Zm-3.46-18.16-3.68-10.89a3.65,3.65,0,0,0-6.92,0l-3.64,10.89a3.64,3.64,0,0,0,3.45,4.8h7.34A3.65,3.65,0,0,0,185.55,56.24Z"/><path class="cls-1" d="M242.89,73.6h15.34a3.65,3.65,0,0,1,3.65,3.65v6a3.65,3.65,0,0,1-3.65,3.65H225.6A3.64,3.64,0,0,1,222,83.29V19.64A3.64,3.64,0,0,1,225.6,16h10a3.65,3.65,0,0,1,3.65,3.65V70A3.64,3.64,0,0,0,242.89,73.6Z"/><path class="cls-1" d="M362.83,50.1a20.7,20.7,0,0,1-8.69,8.23q-5.86,3.15-14.55,3.14H328.87V83.29a3.64,3.64,0,0,1-3.65,3.65h-10a3.64,3.64,0,0,1-3.65-3.65V19.64A3.64,3.64,0,0,1,315.24,16h24.35a31.91,31.91,0,0,1,14.35,2.93A20,20,0,0,1,362.73,27a23.46,23.46,0,0,1,2.93,11.83A22.83,22.83,0,0,1,362.83,50.1Zm-17.18-4.7a8.66,8.66,0,0,0,2.43-6.57,8.66,8.66,0,0,0-2.43-6.57c-1.61-1.55-4.08-2.32-7.38-2.32h-9.4V47.72h9.4C341.57,47.72,344,47,345.65,45.4Z"/><path class="cls-1" d="M413,86.94a3.64,3.64,0,0,1-3.2-1.89L396.09,60.16h-4.15V83.29a3.64,3.64,0,0,1-3.65,3.65h-10a3.64,3.64,0,0,1-3.65-3.65V19.64A3.64,3.64,0,0,1,378.31,16h25.36A32,32,0,0,1,418,18.92a20.21,20.21,0,0,1,8.84,8,22.5,22.5,0,0,1,2.93,11.37,21.1,21.1,0,0,1-4,12.63,20.06,20.06,0,0,1-8.12,6.53,3.67,3.67,0,0,0-1.42,5.19l10.94,18.78A3.65,3.65,0,0,1,424,86.94Zm-21.06-39h10.71q4.75,0,7.13-2.33A8.77,8.77,0,0,0,412.15,39a8.54,8.54,0,0,0-2.37-6.37q-2.37-2.32-7.13-2.32H391.94Z"/><path class="cls-1" d="M457.84,33.48v7.06a3.64,3.64,0,0,0,3.65,3.64h15.84A3.65,3.65,0,0,1,481,47.83v6.05a3.65,3.65,0,0,1-3.65,3.65H461.49a3.64,3.64,0,0,0-3.65,3.64v8.28a3.65,3.65,0,0,0,3.65,3.65h18.88A3.64,3.64,0,0,1,484,76.75v6.54a3.64,3.64,0,0,1-3.64,3.65H444.2a3.64,3.64,0,0,1-3.64-3.65V19.64A3.64,3.64,0,0,1,444.2,16h36.17A3.64,3.64,0,0,1,484,19.64v6.54a3.64,3.64,0,0,1-3.64,3.65H461.49A3.65,3.65,0,0,0,457.84,33.48Z"/><path class="cls-1" d="M546.48,50.1a20.78,20.78,0,0,1-8.7,8.23c-3.9,2.1-8.76,3.14-14.55,3.14H512.51V83.29a3.64,3.64,0,0,1-3.64,3.65h-10a3.65,3.65,0,0,1-3.65-3.65V19.64A3.65,3.65,0,0,1,498.88,16h24.35a31.91,31.91,0,0,1,14.35,2.93A20,20,0,0,1,546.37,27a23.46,23.46,0,0,1,2.94,11.83A22.94,22.94,0,0,1,546.48,50.1Zm-17.19-4.7a8.66,8.66,0,0,0,2.43-6.57,8.66,8.66,0,0,0-2.43-6.57c-1.61-1.55-4.08-2.32-7.37-2.32h-9.41V47.72h9.41C525.21,47.72,527.68,47,529.29,45.4Z"/><path class="cls-2" d="M287,39.58c-.77-2-3.78-2.79-8.81-3.11-1.2-4.46-6.54-7.82-12.94-7.82s-11.76,3.38-13,7.85c-4.22.4-6.92,1.29-7.61,3.19-1.75,4.84,9.29,17,21.64,16.77C278.35,56.23,288.79,44.31,287,39.58Z"/><path class="cls-2" d="M323.35,43.37c-.77-2-3.78-2.78-8.81-3.1-1.2-4.46-6.54-7.82-12.94-7.82s-11.76,3.37-13,7.85c-4.22.4-6.92,1.28-7.61,3.18-1.75,4.84,9.28,17,21.64,16.77C314.71,60,325.15,48.11,323.35,43.37Z"/><rect class="cls-3" x="294.31" y="-0.41" width="4.38" height="58.12" rx="2.19" transform="translate(579.47 121.69) rotate(-167.32)"/><path class="cls-4" d="M297.14,50.17s2.35-9,.36-10.81c-1.48-1.37-4.16-.26-6.15-.58-.49-.08-1.06-.23-1.26-.7a1.38,1.38,0,0,1,0-.92,10,10,0,0,1,5.6-6.63c2.54-1.12,5.41-1.11,8.19-1.08a19.76,19.76,0,0,1,3.61.28,9.75,9.75,0,0,1,6,4,3.78,3.78,0,0,1,.75,3.37c-.49,1.26-1.94,1.83-3.27,2.11-1.65.35-3.93-1.24-4.74.24-.94,1.71.93,3.75,1,5.71l.06,5a.89.89,0,0,1-.08.51,1,1,0,0,1-.82.3c-2.45.1-4.91.14-7.36.14a2.88,2.88,0,0,1-1.24-.18C297.36,50.76,297.07,50.59,297.14,50.17Z"/><path class="cls-5" d="M272.63,49.19l-.43.46-.46.43A14.95,14.95,0,0,1,250.62,29l.18-.2.13-.13.25-.25.13-.13.2-.18Z"/><path class="cls-6" d="M272.64,49.2l-.44.45-.45.44A15.27,15.27,0,0,1,250.61,29l.19-.19.13-.13.25-.25.13-.13.19-.19h0l21.12,21.12Z"/><path class="cls-7" d="M255.06,35.73a1.6,1.6,0,0,1-1.49,1.49c-1.26-.14-2-3.45-1.49-3.79.19-.12.62.19,1.49.81S255,35.28,255.06,35.73Z"/><path class="cls-7" d="M254.11,41.15a1.58,1.58,0,0,0,1.48,1.49c1.26-.14,2-3.45,1.49-3.8-.18-.11-.62.2-1.49.82S254.13,40.7,254.11,41.15Z"/><path class="cls-7" d="M262,44.18a1.59,1.59,0,0,1-1.49,1.49c-1.25-.14-2.05-3.45-1.49-3.79.19-.12.62.19,1.49.81S262,43.73,262,44.18Z"/><path class="cls-7" d="M250,38.72a1.59,1.59,0,0,1,1.49-1.49c1.25.13,2,3.44,1.49,3.79-.19.12-.63-.19-1.49-.81S250,39.16,250,38.72Z"/><path class="cls-7" d="M254.51,45.73A1.58,1.58,0,0,1,256,44.24c1.26.13,2.05,3.45,1.49,3.79-.18.12-.62-.19-1.49-.81S254.53,46.17,254.51,45.73Z"/><path class="cls-7" d="M262,47.13a1.59,1.59,0,0,0,1.49,1.49c1.25-.14,2-3.45,1.49-3.8-.19-.11-.62.2-1.49.82S262,46.68,262,47.13Z"/><path class="cls-7" d="M265.45,48.78a1.6,1.6,0,0,0,1.49,1.49c1.26-.13,2.05-3.44,1.49-3.79-.19-.12-.62.19-1.49.81S265.48,48.34,265.45,48.78Z"/><path class="cls-4" d="M261.92,50.64s1.64-6.27.25-7.55c-1-1-2.9-.18-4.29-.4a1.09,1.09,0,0,1-.88-.49.94.94,0,0,1,0-.64,7,7,0,0,1,3.9-4.63,13.78,13.78,0,0,1,5.72-.76,14.2,14.2,0,0,1,2.52.2,6.79,6.79,0,0,1,4.17,2.77,2.59,2.59,0,0,1,.52,2.35A2.93,2.93,0,0,1,271.57,43c-1.16.24-2.75-.87-3.32.16-.65,1.2.66,2.62.68,4l0,3.53a.68.68,0,0,1-.06.35.64.64,0,0,1-.57.21c-1.71.07-3.42.1-5.14.1a1.92,1.92,0,0,1-.86-.13C262.07,51,261.87,50.93,261.92,50.64Z"/><path class="cls-5" d="M297.72,49.06c.1.11.21.23.32.33l.33.32a10.86,10.86,0,0,0,15.34-15.34l-.13-.14-.1-.1L313.3,34l-.09-.09-.15-.14Z"/><path class="cls-6" d="M297.71,49.07l.33.32.32.33a11.1,11.1,0,0,0,15.36-15.36l-.14-.13-.1-.1L313.3,34l-.09-.09-.14-.14h0L297.72,49.06Z"/><path class="cls-7" d="M310.49,39.29a1.15,1.15,0,0,0,1.08,1.08c.91-.1,1.48-2.5,1.08-2.76-.14-.08-.45.14-1.08.6S310.51,39,310.49,39.29Z"/><path class="cls-7" d="M311.18,43.22a1.15,1.15,0,0,1-1.08,1.08c-.91-.09-1.49-2.5-1.09-2.75.14-.09.46.14,1.09.59S311.16,42.9,311.18,43.22Z"/><path class="cls-7" d="M305.45,45.42a1.15,1.15,0,0,0,1.09,1.08c.9-.09,1.48-2.5,1.08-2.75-.14-.08-.46.14-1.08.59S305.47,45.1,305.45,45.42Z"/><path class="cls-7" d="M314.19,41.46a1.15,1.15,0,0,0-1.08-1.08c-.91.09-1.49,2.5-1.08,2.75.13.09.45-.14,1.08-.59S314.17,41.78,314.19,41.46Z"/><path class="cls-7" d="M310.89,46.55a1.15,1.15,0,0,0-1.08-1.08c-.91.1-1.49,2.5-1.09,2.75.14.09.46-.14,1.09-.59S310.87,46.87,310.89,46.55Z"/><path class="cls-7" d="M305.45,47.56a1.16,1.16,0,0,1-1.08,1.09c-.91-.1-1.49-2.51-1.08-2.76.13-.08.45.14,1.08.59S305.43,47.24,305.45,47.56Z"/><path class="cls-7" d="M302.94,48.77a1.16,1.16,0,0,1-1.09,1.08c-.91-.1-1.48-2.5-1.08-2.76.14-.08.45.14,1.08.59S302.91,48.44,302.94,48.77Z"/><rect class="cls-3" x="269.63" y="-0.66" width="4.38" height="58.12" rx="2.19" transform="matrix(0.98, -0.22, 0.22, 0.98, 0.4, 60.37)"/><path class="cls-8" d="M323.84,46.35a40.19,40.19,0,1,1-80.37,0"/></g></g></svg>