<svg xmlns="http://www.w3.org/2000/svg" xmlns:xlink="http://www.w3.org/1999/xlink" viewBox="0 0 32 32"><defs><style>.cls-1{fill:#75aa7b;}.cls-2{fill:#008c39;}.cls-3{fill:#e5b641;}.cls-4{fill:#f2e5c0;}.cls-5{fill:#ff6969;}.cls-6{fill:#ff0d0d;}.cls-7{fill:#e8c621;}.cls-8{fill:url(#Sfumatura_senza_nome_267);}</style><linearGradient id="Sfumatura_senza_nome_267" x1="9.06" y1="26.21" x2="22.94" y2="12.33" gradientUnits="userSpaceOnUse"><stop offset="0" stop-color="#6f6f6e"/><stop offset="1" stop-color="#b1b1b1"/></linearGradient></defs><g id="Livello_2" data-name="Livello 2"><g id="Livello_1-2" data-name="Livello 1"><circle class="cls-1" cx="16" cy="16" r="16"/><path class="cls-2" d="M17,15c-.22-.58-1.08-.8-2.52-.89-.34-1.28-1.87-2.24-3.7-2.24s-3.37,1-3.71,2.25c-1.2.11-2,.37-2.17.91-.5,1.38,2.65,4.87,6.19,4.8S17.47,16.3,17,15Z"/><path class="cls-2" d="M27.36,16c-.22-.57-1.08-.79-2.52-.88-.35-1.28-1.87-2.24-3.71-2.24s-3.36,1-3.7,2.25c-1.21.11-2,.36-2.18.91-.5,1.38,2.66,4.86,6.19,4.79S27.87,17.39,27.36,16Z"/><rect class="cls-3" x="19.05" y="3.51" width="1.25" height="16.63" rx="0.6" transform="translate(36.27 27.67) rotate(-167.32)"/><path class="cls-4" d="M19.86,18s.67-2.57.1-3.09-1.19-.08-1.76-.17a.44.44,0,0,1-.36-.2.46.46,0,0,1,0-.26,2.87,2.87,0,0,1,1.61-1.9,5.58,5.58,0,0,1,2.34-.31,5.88,5.88,0,0,1,1,.08,2.74,2.74,0,0,1,1.71,1.14,1.07,1.07,0,0,1,.22,1,1.18,1.18,0,0,1-.94.6c-.47.1-1.12-.35-1.35.07s.26,1.08.27,1.64l0,1.44a.22.22,0,0,1,0,.14c0,.08-.14.09-.23.09-.7,0-1.4,0-2.11,0A.83.83,0,0,1,20,18.2C19.92,18.15,19.84,18.1,19.86,18Z"/><path class="cls-5" d="M12.85,17.7l-.13.13-.13.12a4.27,4.27,0,0,1-6-6l0-.06,0,0,.07-.08,0,0,.06-.06Z"/><path class="cls-6" d="M12.85,17.7l-.13.13-.13.13a4.37,4.37,0,0,1-6-6.05l.06-.06,0,0,.07-.08,0,0,.06-.06h0l6.05,6Z"/><path class="cls-7" d="M7.82,13.85a.46.46,0,0,1-.43.42c-.36,0-.58-1-.43-1.08s.18.05.43.23S7.81,13.72,7.82,13.85Z"/><path class="cls-7" d="M7.54,15.4a.46.46,0,0,0,.43.42c.36,0,.59-1,.43-1.08s-.18,0-.43.23S7.55,15.27,7.54,15.4Z"/><path class="cls-7" d="M9.8,16.26a.45.45,0,0,1-.43.43c-.35,0-.58-1-.42-1.08s.18.05.42.23S9.79,16.14,9.8,16.26Z"/><path class="cls-7" d="M6.36,14.7a.44.44,0,0,1,.42-.42c.36,0,.59,1,.43,1.08s-.18,0-.43-.23S6.37,14.83,6.36,14.7Z"/><path class="cls-7" d="M7.66,16.71a.46.46,0,0,1,.42-.43c.36,0,.59,1,.43,1.09s-.18-.06-.43-.23S7.67,16.84,7.66,16.71Z"/><path class="cls-7" d="M9.8,17.11a.45.45,0,0,0,.43.42c.36,0,.58-1,.42-1.08s-.17.05-.42.23S9.81,17,9.8,17.11Z"/><path class="cls-7" d="M10.79,17.58a.45.45,0,0,0,.43.43c.36,0,.58-1,.42-1.09s-.17.06-.42.24S10.8,17.46,10.79,17.58Z"/><path class="cls-4" d="M9.78,18.11s.47-1.79.07-2.16-.83,0-1.23-.11c-.1,0-.21-.05-.25-.14a.41.41,0,0,1,0-.19,2,2,0,0,1,1.12-1.32A4.1,4.1,0,0,1,11.13,14a4.37,4.37,0,0,1,.72.06,1.93,1.93,0,0,1,1.19.79.74.74,0,0,1,.15.68.82.82,0,0,1-.65.42c-.33.07-.78-.25-.95.05s.19.75.2,1.13v1a.16.16,0,0,1,0,.1c0,.06-.1.06-.16.07l-1.47,0a.69.69,0,0,1-.25,0C9.82,18.23,9.77,18.2,9.78,18.11Z"/><path class="cls-5" d="M20,17.66l.1.1.09.09a3.11,3.11,0,0,0,4.39-4.39l0,0,0,0-.06-.05,0,0-.05,0Z"/><path class="cls-6" d="M20,17.66l.1.1.09.09a3.17,3.17,0,0,0,4.39-4.39l0,0,0,0-.06-.05,0,0,0,0h0L20,17.66Z"/><path class="cls-7" d="M23.68,14.87a.32.32,0,0,0,.31.3c.26,0,.42-.71.31-.78s-.13,0-.31.17S23.68,14.77,23.68,14.87Z"/><path class="cls-7" d="M23.88,16a.33.33,0,0,1-.31.31c-.26,0-.43-.72-.31-.79s.13,0,.31.17S23.87,15.9,23.88,16Z"/><path class="cls-7" d="M22.24,16.62a.33.33,0,0,0,.31.31c.26,0,.42-.72.31-.79s-.13,0-.31.17S22.24,16.53,22.24,16.62Z"/><path class="cls-7" d="M24.74,15.49a.33.33,0,0,0-.31-.31c-.26,0-.43.71-.31.78s.13,0,.31-.16S24.73,15.58,24.74,15.49Z"/><path class="cls-7" d="M23.79,16.94a.34.34,0,0,0-.31-.31c-.26,0-.42.72-.31.79s.13,0,.31-.17S23.79,17,23.79,16.94Z"/><path class="cls-7" d="M22.24,17.23a.33.33,0,0,1-.31.31c-.26,0-.43-.71-.31-.78s.13,0,.31.16S22.23,17.14,22.24,17.23Z"/><path class="cls-7" d="M21.52,17.58a.33.33,0,0,1-.31.31c-.26,0-.43-.72-.31-.79s.13,0,.31.17S21.51,17.49,21.52,17.58Z"/><rect class="cls-3" x="11.99" y="3.44" width="1.25" height="16.63" rx="0.6" transform="translate(-2.27 3.06) rotate(-12.68)"/><path class="cls-8" d="M27.5,16.89a11.5,11.5,0,0,1-23,0"/></g></g></svg>