<svg id="Livello_1" data-name="Livello 1" xmlns="http://www.w3.org/2000/svg" xmlns:xlink="http://www.w3.org/1999/xlink" viewBox="0 0 549.31 86.94"><defs><style>.cls-1{fill:#d1d1d1;}.cls-2{fill:#008c39;}.cls-3{fill:#e5b641;}.cls-4{fill:#f2e5c0;}.cls-5{fill:#ff6969;}.cls-6{fill:#ff0d0d;}.cls-7{fill:#e8c621;}.cls-8{fill:url(#Sfumatura_senza_nome_267);}</style><linearGradient id="Sfumatura_senza_nome_267" x1="283.89" y1="326.19" x2="332.41" y2="277.68" gradientUnits="userSpaceOnUse"><stop offset="0" stop-color="#6f6f6e"/><stop offset="1" stop-color="#b1b1b1"/></linearGradient></defs><path class="cls-1" d="M104.85,266.9v63.65a3.65,3.65,0,0,1-3.65,3.65h-10a3.64,3.64,0,0,1-3.65-3.65v-38.9l-15,40.18a3.64,3.64,0,0,1-3.42,2.37H60.27a3.63,3.63,0,0,1-3.41-2.37L41.77,291.55v39a3.64,3.64,0,0,1-3.64,3.65h-10a3.65,3.65,0,0,1-3.65-3.65V266.9a3.65,3.65,0,0,1,3.65-3.65H42.45a3.64,3.64,0,0,1,3.38,2.28L61.42,304a3.65,3.65,0,0,0,6.77,0l15.42-38.44A3.66,3.66,0,0,1,87,263.25h14.2A3.65,3.65,0,0,1,104.85,266.9Z" transform="translate(-24.49 -247.26)"/><path class="cls-1" d="M134.56,280.74v7.06a3.65,3.65,0,0,0,3.65,3.65h15.85a3.65,3.65,0,0,1,3.65,3.65v6a3.66,3.66,0,0,1-3.65,3.65H138.21a3.64,3.64,0,0,0-3.65,3.65v8.27a3.64,3.64,0,0,0,3.65,3.65h18.88a3.65,3.65,0,0,1,3.65,3.65v6.54a3.65,3.65,0,0,1-3.65,3.65H120.93a3.64,3.64,0,0,1-3.65-3.65V266.9a3.64,3.64,0,0,1,3.65-3.65h36.16a3.65,3.65,0,0,1,3.65,3.65v6.55a3.65,3.65,0,0,1-3.65,3.64H138.21A3.65,3.65,0,0,0,134.56,280.74Z" transform="translate(-24.49 -247.26)"/><path class="cls-1" d="M213.51,321.67H192.26a3.64,3.64,0,0,0-3.45,2.47l-2.57,7.58a3.66,3.66,0,0,1-3.46,2.48H172.51a3.65,3.65,0,0,1-3.44-4.89l23-63.65a3.64,3.64,0,0,1,3.43-2.41h14.89a3.64,3.64,0,0,1,3.43,2.41l23,63.65a3.64,3.64,0,0,1-3.43,4.89H223a3.64,3.64,0,0,1-3.46-2.48L217,324.14A3.64,3.64,0,0,0,213.51,321.67Zm-3.46-18.16-3.69-10.89a3.65,3.65,0,0,0-6.92,0l-3.64,10.89a3.65,3.65,0,0,0,3.46,4.81h7.33A3.65,3.65,0,0,0,210.05,303.51Z" transform="translate(-24.49 -247.26)"/><path class="cls-1" d="M267.38,320.86h15.34a3.64,3.64,0,0,1,3.65,3.65v6a3.64,3.64,0,0,1-3.65,3.65H250.1a3.64,3.64,0,0,1-3.65-3.65V266.9a3.64,3.64,0,0,1,3.65-3.65h10a3.64,3.64,0,0,1,3.65,3.65v50.31A3.64,3.64,0,0,0,267.38,320.86Z" transform="translate(-24.49 -247.26)"/><path class="cls-1" d="M387.33,297.36a20.72,20.72,0,0,1-8.7,8.23c-3.9,2.1-8.76,3.14-14.55,3.14H353.37v21.82a3.65,3.65,0,0,1-3.65,3.65h-10a3.65,3.65,0,0,1-3.65-3.65V266.9a3.65,3.65,0,0,1,3.65-3.65h24.35a31.88,31.88,0,0,1,14.35,2.93,20.25,20.25,0,0,1,8.8,8.08,23.56,23.56,0,0,1,2.93,11.83A22.91,22.91,0,0,1,387.33,297.36Zm-17.18-4.7a10.13,10.13,0,0,0,0-13.14q-2.43-2.32-7.38-2.32h-9.4V295h9.4Q367.72,295,370.15,292.66Z" transform="translate(-24.49 -247.26)"/><path class="cls-1" d="M437.49,334.2a3.63,3.63,0,0,1-3.19-1.89l-13.72-24.89h-4.15v23.13a3.64,3.64,0,0,1-3.64,3.65h-10a3.65,3.65,0,0,1-3.65-3.65V266.9a3.65,3.65,0,0,1,3.65-3.65h25.36a32,32,0,0,1,14.3,2.93,20.27,20.27,0,0,1,8.84,8,22.41,22.41,0,0,1,2.94,11.37,21.13,21.13,0,0,1-4,12.64,20.06,20.06,0,0,1-8.12,6.52,3.68,3.68,0,0,0-1.42,5.19l10.95,18.79a3.65,3.65,0,0,1-3.16,5.48Zm-21.06-39h10.72c3.16,0,5.54-.77,7.12-2.33a8.72,8.72,0,0,0,2.38-6.57,8.51,8.51,0,0,0-2.38-6.37c-1.58-1.54-4-2.32-7.12-2.32H416.43Z" transform="translate(-24.49 -247.26)"/><path class="cls-1" d="M482.33,280.74v7.06a3.65,3.65,0,0,0,3.65,3.65h15.85a3.65,3.65,0,0,1,3.65,3.65v6a3.66,3.66,0,0,1-3.65,3.65H486a3.64,3.64,0,0,0-3.65,3.65v8.27a3.64,3.64,0,0,0,3.65,3.65h18.88a3.65,3.65,0,0,1,3.65,3.65v6.54a3.65,3.65,0,0,1-3.65,3.65H468.7a3.64,3.64,0,0,1-3.65-3.65V266.9a3.64,3.64,0,0,1,3.65-3.65h36.16a3.65,3.65,0,0,1,3.65,3.65v6.55a3.65,3.65,0,0,1-3.65,3.64H486A3.65,3.65,0,0,0,482.33,280.74Z" transform="translate(-24.49 -247.26)"/><path class="cls-1" d="M571,297.36a20.76,20.76,0,0,1-8.69,8.23q-5.87,3.15-14.56,3.14H537v21.82a3.65,3.65,0,0,1-3.65,3.65h-10a3.64,3.64,0,0,1-3.65-3.65V266.9a3.64,3.64,0,0,1,3.65-3.65h24.34a31.88,31.88,0,0,1,14.35,2.93,20.25,20.25,0,0,1,8.8,8.08,23.56,23.56,0,0,1,2.93,11.83A22.91,22.91,0,0,1,571,297.36Zm-17.18-4.7a10.13,10.13,0,0,0,0-13.14q-2.43-2.32-7.38-2.32H537V295h9.4Q551.36,295,553.79,292.66Z" transform="translate(-24.49 -247.26)"/><path class="cls-2" d="M173.79,401.52" transform="translate(-24.49 -247.26)"/><path class="cls-2" d="M311.48,286.84c-.77-2-3.78-2.79-8.8-3.1-1.21-4.47-6.55-7.83-12.95-7.83s-11.76,3.38-13,7.86c-4.21.39-6.92,1.28-7.61,3.18-1.75,4.84,9.29,17,21.64,16.77C302.84,303.49,313.28,291.57,311.48,286.84Z" transform="translate(-24.49 -247.26)"/><path class="cls-2" d="M347.84,290.64c-.77-2-3.78-2.79-8.8-3.11-1.21-4.46-6.55-7.82-13-7.82s-11.76,3.38-12.95,7.85c-4.22.4-6.92,1.29-7.61,3.18-1.75,4.84,9.29,17,21.64,16.78C339.2,307.29,349.64,295.37,347.84,290.64Z" transform="translate(-24.49 -247.26)"/><rect class="cls-3" x="318.8" y="246.85" width="4.38" height="58.12" rx="2.19" transform="translate(549.08 368.3) rotate(-167.32)"/><path class="cls-4" d="M321.64,297.43s2.34-9,.36-10.81c-1.48-1.36-4.16-.25-6.15-.58-.5-.08-1.07-.23-1.27-.7a1.52,1.52,0,0,1,0-.92,10,10,0,0,1,5.61-6.63c2.54-1.12,5.41-1.11,8.18-1.08A19.76,19.76,0,0,1,332,277a9.73,9.73,0,0,1,6,4,3.79,3.79,0,0,1,.75,3.37c-.49,1.27-1.94,1.84-3.26,2.11-1.66.35-3.94-1.24-4.75.24-.94,1.72.94,3.76,1,5.71l.07,5a1,1,0,0,1-.09.51.94.94,0,0,1-.81.31c-2.46.09-4.91.13-7.37.13a2.84,2.84,0,0,1-1.23-.18C321.86,298,321.56,297.85,321.64,297.43Z" transform="translate(-24.49 -247.26)"/><path class="cls-5" d="M297.13,296.45l-.44.46-.46.43a14.95,14.95,0,0,1-21.12-21.12l.19-.2.12-.13.26-.25.13-.13.2-.18Z" transform="translate(-24.49 -247.26)"/><path class="cls-6" d="M297.14,296.46l-.45.45-.45.44a15.27,15.27,0,0,1-21.14-21.14l.2-.19.12-.13.26-.25.13-.13.19-.19h0l21.12,21.12Z" transform="translate(-24.49 -247.26)"/><path class="cls-7" d="M279.55,283a1.59,1.59,0,0,1-1.49,1.49c-1.25-.13-2-3.45-1.49-3.79.19-.12.62.19,1.49.81S279.52,282.55,279.55,283Z" transform="translate(-24.49 -247.26)"/><path class="cls-7" d="M278.6,288.41a1.59,1.59,0,0,0,1.49,1.49c1.25-.14,2-3.45,1.49-3.79-.19-.12-.62.19-1.49.81S278.63,288,278.6,288.41Z" transform="translate(-24.49 -247.26)"/><path class="cls-7" d="M286.48,291.44a1.59,1.59,0,0,1-1.49,1.49c-1.25-.13-2-3.45-1.49-3.79.19-.12.62.19,1.49.81S286.45,291,286.48,291.44Z" transform="translate(-24.49 -247.26)"/><path class="cls-7" d="M274.45,286a1.59,1.59,0,0,1,1.49-1.49c1.25.13,2,3.45,1.49,3.79-.19.12-.62-.19-1.49-.81S274.48,286.42,274.45,286Z" transform="translate(-24.49 -247.26)"/><path class="cls-7" d="M279,293a1.59,1.59,0,0,1,1.49-1.49c1.25.14,2,3.45,1.49,3.8-.19.11-.62-.2-1.49-.82S279,293.44,279,293Z" transform="translate(-24.49 -247.26)"/><path class="cls-7" d="M286.48,294.39a1.6,1.6,0,0,0,1.49,1.49c1.26-.14,2-3.45,1.49-3.79-.18-.12-.62.19-1.49.81S286.51,293.94,286.48,294.39Z" transform="translate(-24.49 -247.26)"/><path class="cls-7" d="M290,296a1.58,1.58,0,0,0,1.49,1.49c1.25-.13,2-3.44,1.49-3.79-.19-.12-.63.19-1.49.81S290,295.6,290,296Z" transform="translate(-24.49 -247.26)"/><path class="cls-4" d="M286.41,297.9s1.64-6.26.26-7.55c-1-1-2.91-.18-4.3-.4-.34-.06-.74-.17-.88-.49a1,1,0,0,1,0-.64,7,7,0,0,1,3.91-4.63,13.57,13.57,0,0,1,5.71-.75,13.19,13.19,0,0,1,2.52.19,6.81,6.81,0,0,1,4.18,2.77,2.67,2.67,0,0,1,.52,2.36,2.93,2.93,0,0,1-2.28,1.47c-1.16.24-2.74-.87-3.31.17-.66,1.19.65,2.61.67,4l0,3.52a.53.53,0,0,1-.06.35.66.66,0,0,1-.56.22c-1.72.06-3.43.09-5.14.09a2,2,0,0,1-.87-.13C286.57,298.31,286.36,298.19,286.41,297.9Z" transform="translate(-24.49 -247.26)"/><path class="cls-5" d="M322.22,296.32c.1.12.21.23.31.34l.33.31a10.86,10.86,0,0,0,15.35-15.34l-.14-.14-.09-.1-.19-.18-.09-.09-.15-.14Z" transform="translate(-24.49 -247.26)"/><path class="cls-6" d="M322.21,296.33l.32.33.33.32a11.09,11.09,0,0,0,15.35-15.35l-.14-.14-.09-.1-.19-.18-.09-.09-.14-.14h0l-15.33,15.34Z" transform="translate(-24.49 -247.26)"/><path class="cls-7" d="M335,286.55a1.16,1.16,0,0,0,1.08,1.08c.91-.1,1.49-2.5,1.08-2.75-.13-.09-.45.14-1.08.59S335,286.23,335,286.55Z" transform="translate(-24.49 -247.26)"/><path class="cls-7" d="M335.67,290.48a1.15,1.15,0,0,1-1.08,1.09c-.91-.1-1.49-2.51-1.08-2.76.13-.08.45.14,1.08.59S335.65,290.16,335.67,290.48Z" transform="translate(-24.49 -247.26)"/><path class="cls-7" d="M330,292.69a1.15,1.15,0,0,0,1.08,1.08c.91-.1,1.48-2.51,1.08-2.76-.14-.08-.45.14-1.08.59S330,292.36,330,292.69Z" transform="translate(-24.49 -247.26)"/><path class="cls-7" d="M338.68,288.72a1.14,1.14,0,0,0-1.08-1.08c-.91.09-1.48,2.5-1.08,2.75.14.09.45-.14,1.08-.59S338.66,289,338.68,288.72Z" transform="translate(-24.49 -247.26)"/><path class="cls-7" d="M335.38,293.81a1.16,1.16,0,0,0-1.08-1.08c-.91.1-1.49,2.5-1.08,2.75.13.09.45-.14,1.08-.59S335.36,294.14,335.38,293.81Z" transform="translate(-24.49 -247.26)"/><path class="cls-7" d="M329.94,294.83a1.15,1.15,0,0,1-1.08,1.08c-.91-.1-1.48-2.51-1.08-2.76.14-.08.45.14,1.08.59S329.92,294.5,329.94,294.83Z" transform="translate(-24.49 -247.26)"/><path class="cls-7" d="M327.43,296a1.16,1.16,0,0,1-1.08,1.08c-.91-.1-1.49-2.5-1.08-2.75.13-.09.45.14,1.08.59S327.41,295.71,327.43,296Z" transform="translate(-24.49 -247.26)"/><rect class="cls-3" x="294.12" y="246.61" width="4.38" height="58.12" rx="2.19" transform="matrix(0.98, -0.22, 0.22, 0.98, -77.78, -175.48)"/><path class="cls-8" d="M348.34,293.61a40.19,40.19,0,0,1-80.38,0" transform="translate(-24.49 -247.26)"/></svg>